# File created by Blade
# Date/Time:  Thu Jan 22 19:24:19 2015
# Frame Rate: 120.000 fps
#------------------------------------------------------
:FULLY-SPECIFIED
:DEGREES
3902
root -3.375424 33.564792 -2.859895 -15.559090 -47.783515 23.899297
RightUpLeg -7.446765 3.805424 -10.047608
RightLeg 22.262934 -0.000000 -0.000000
RightFoot -20.845881 -9.843937 -7.478587
RightToeBase 2.467637 -0.000000 -0.000000
LeftUpLeg -107.986561 -29.487928 -1.786441
LeftLeg 114.685225 -0.000000 -0.000000
LeftFoot 14.356382 -8.903491 -17.432399
LeftToeBase 0.737183 -0.000000 -0.000000
Spine 4.169226 31.280643 -4.749996
RightShoulder -5.914586 -4.924554 -21.600016
RightArm 37.758533 -25.700951 57.117980
RightForeArm 13.014902 0.000000 46.523051
RightHand 12.280412 -0.000000 36.064414
RightHandThumb1 -24.326973 -0.000000 -32.862282
LeftShoulder -29.977769 4.566968 26.053049
LeftArm 13.032485 -31.500088 -34.147497
LeftForeArm 22.701962 -0.000000 0.060781
LeftHand -0.569387 0.000000 -1.652243
LeftHandThumb1 -26.253704 0.000000 33.147579
Head -17.180512 60.390010 -30.681286
3903
root -3.361192 33.559633 -2.861127 -15.486961 -47.725945 23.869888
RightUpLeg -7.511035 3.954232 -10.011235
RightLeg 22.301123 -0.000000 -0.000000
RightFoot -20.807198 -10.241638 -7.824917
RightToeBase 2.663599 -0.000000 -0.000000
LeftUpLeg -108.016565 -29.487043 -1.834385
LeftLeg 114.711769 -0.000000 -0.000000
LeftFoot 14.385814 -8.989253 -17.449832
LeftToeBase 0.785634 -0.000000 -0.000000
Spine 4.120824 31.261634 -4.838813
RightShoulder -5.901532 -4.913290 -21.598179
RightArm 37.794702 -25.738149 57.080005
RightForeArm 13.094702 0.000000 46.511039
RightHand 12.318117 -0.000000 36.079367
RightHandThumb1 -24.326973 -0.000000 -32.862282
LeftShoulder -29.942390 4.530092 26.114427
LeftArm 12.999220 -31.452717 -34.170012
LeftForeArm 22.736990 -0.000000 0.120556
LeftHand -0.561561 0.000000 -1.730720
LeftHandThumb1 -26.253704 0.000000 33.147579
Head -17.175939 60.394839 -30.632830
3904
root -3.347057 33.554339 -2.863979 -15.404291 -47.663258 23.842793
RightUpLeg -7.577133 4.125663 -9.970816
RightLeg 22.315974 -0.000000 -0.000000
RightFoot -20.760247 -10.682062 -8.148122
RightToeBase 2.880909 -0.000000 -0.000000
LeftUpLeg -108.066341 -29.486932 -1.865806
LeftLeg 114.763497 -0.000000 -0.000000
LeftFoot 14.396998 -9.032944 -17.507657
LeftToeBase 0.852003 -0.000000 -0.000000
Spine 4.060822 31.240093 -4.933780
RightShoulder -5.875608 -4.912668 -21.598963
RightArm 37.819561 -25.703053 57.113300
RightForeArm 13.094676 0.000000 46.494840
RightHand 12.273632 0.000000 36.249306
RightHandThumb1 -24.326973 -0.000000 -32.862282
LeftShoulder -29.915117 4.525980 26.131193
LeftArm 13.009145 -31.433689 -34.176156
LeftForeArm 22.769265 -0.000000 0.150173
LeftHand -0.547365 0.000000 -1.870082
LeftHandThumb1 -26.253704 0.000000 33.147579
Head -17.164938 60.349924 -30.581880
3905
root -3.333865 33.547660 -2.871574 -15.312193 -47.597134 23.802713
RightUpLeg -7.648220 4.323239 -9.907071
RightLeg 22.347130 -0.000000 -0.000000
RightFoot -20.706221 -11.171020 -8.467764
RightToeBase 3.098143 -0.000000 -0.000000
LeftUpLeg -108.129095 -29.468482 -1.881566
LeftLeg 114.817232 -0.000000 -0.000000
LeftFoot 14.450126 -9.112542 -17.581425
LeftToeBase 0.790233 -0.000000 -0.000000
Spine 4.018414 31.208223 -5.030269
RightShoulder -5.859151 -4.889601 -21.593605
RightArm 37.830563 -25.700569 57.132927
RightForeArm 13.076946 -0.000000 46.531098
RightHand 12.305318 -0.000000 36.330372
RightHandThumb1 -24.326973 -0.000000 -32.862282
LeftShoulder -29.907736 4.540177 26.125971
LeftArm 13.068575 -31.414964 -34.191895
LeftForeArm 22.777216 -0.000000 0.130117
LeftHand -0.513979 0.000000 -1.875159
LeftHandThumb1 -26.253704 0.000000 33.147579
Head -17.237429 60.363540 -30.613620
3906
root -3.321449 33.540850 -2.873664 -15.256193 -47.539456 23.756989
RightUpLeg -7.676194 4.552139 -9.858640
RightLeg 22.381227 -0.000000 -0.000000
RightFoot -20.662522 -11.584029 -8.692963
RightToeBase 3.234869 -0.000000 -0.000000
LeftUpLeg -108.143410 -29.453262 -1.917212
LeftLeg 114.879190 -0.000000 -0.000000
LeftFoot 14.492094 -9.133485 -17.721328
LeftToeBase 0.829506 -0.000000 -0.000000
Spine 4.021673 31.206634 -5.078018
RightShoulder -5.857524 -4.869054 -21.610364
RightArm 37.849128 -25.725783 57.123587
RightForeArm 13.143205 0.000000 46.553556
RightHand 12.299375 -0.000000 36.284787
RightHandThumb1 -24.326973 -0.000000 -32.862282
LeftShoulder -29.872693 4.488050 26.150522
LeftArm 13.064983 -31.382123 -34.191114
LeftForeArm 22.772515 -0.000000 0.135035
LeftHand -0.441553 -0.000000 -1.946463
LeftHandThumb1 -26.253704 0.000000 33.147579
Head -17.250573 60.354610 -30.602612
3907
root -3.307437 33.535176 -2.874779 -15.175271 -47.426426 23.709827
RightUpLeg -7.719095 4.702764 -9.838388
RightLeg 22.427235 -0.000000 -0.000000
RightFoot -20.652981 -11.937216 -8.852498
RightToeBase 3.382151 -0.000000 -0.000000
LeftUpLeg -108.190409 -29.484618 -1.942234
LeftLeg 114.922392 -0.000000 -0.000000
LeftFoot 14.569753 -9.156870 -17.829865
LeftToeBase 0.791944 -0.000000 -0.000000
Spine 3.993180 31.137685 -5.154415
RightShoulder -5.826013 -4.827855 -21.632583
RightArm 37.811259 -25.751688 57.152331
RightForeArm 13.143151 -0.000000 46.600756
RightHand 12.305012 -0.000000 36.277056
RightHandThumb1 -24.326973 -0.000000 -32.862282
LeftShoulder -29.877122 4.468847 26.166911
LeftArm 13.119718 -31.309310 -34.221343
LeftForeArm 22.736719 -0.000000 0.127700
LeftHand -0.357770 -0.000000 -1.951712
LeftHandThumb1 -26.253704 0.000000 33.147579
Head -17.266111 60.336755 -30.595269
3908
root -3.295830 33.530043 -2.877390 -15.115655 -47.262699 23.660380
RightUpLeg -7.722580 4.783662 -9.831447
RightLeg 22.464978 -0.000000 -0.000000
RightFoot -20.642712 -12.240913 -9.034144
RightToeBase 3.467119 -0.000000 -0.000000
LeftUpLeg -108.194189 -29.541341 -1.989168
LeftLeg 114.967313 -0.000000 -0.000000
LeftFoot 14.651522 -9.168505 -17.855119
LeftToeBase 0.815683 -0.000000 -0.000000
Spine 4.003238 31.043172 -5.231330
RightShoulder -5.813066 -4.831517 -21.649269
RightArm 37.829911 -25.783095 57.148780
RightForeArm 13.222572 -0.000000 46.634464
RightHand 12.336515 -0.000000 36.583056
RightHandThumb1 -24.326973 -0.000000 -32.862282
LeftShoulder -29.889768 4.527011 26.138453
LeftArm 13.270517 -31.375734 -34.332122
LeftForeArm 22.815128 -0.000000 0.165719
LeftHand -0.467892 0.000000 -1.990132
LeftHandThumb1 -26.253704 0.000000 33.147579
Head -17.268656 60.309437 -30.574653
3909
root -3.281986 33.526227 -2.882273 -15.031010 -47.149636 23.574077
RightUpLeg -7.760351 4.844997 -9.799793
RightLeg 22.538903 -0.000000 -0.000000
RightFoot -20.625917 -12.424113 -9.151855
RightToeBase 3.511941 -0.000000 -0.000000
LeftUpLeg -108.206414 -29.551677 -1.988182
LeftLeg 115.001409 -0.000000 -0.000000
LeftFoot 14.716002 -9.207088 -17.931902
LeftToeBase 0.868498 -0.000000 -0.000000
Spine 4.049433 30.983424 -5.232923
RightShoulder -5.808872 -4.846085 -21.683730
RightArm 37.869018 -25.776886 57.151745
RightForeArm 13.215833 0.000000 46.687919
RightHand 12.285127 -0.000000 36.310183
RightHandThumb1 -24.326973 -0.000000 -32.862282
LeftShoulder -29.899180 4.500540 26.094901
LeftArm 13.330055 -31.330746 -34.355244
LeftForeArm 22.869923 -0.000000 0.193430
LeftHand -0.483468 0.000000 -1.964799
LeftHandThumb1 -26.253704 0.000000 33.147579
Head -17.349753 60.373388 -30.664779
3910
root -3.268361 33.522472 -2.883294 -14.941742 -47.005831 23.485578
RightUpLeg -7.774691 4.819290 -9.783222
RightLeg 22.577030 -0.000000 -0.000000
RightFoot -20.577074 -12.599233 -9.385438
RightToeBase 3.431264 -0.000000 -0.000000
LeftUpLeg -108.220874 -29.591039 -1.980562
LeftLeg 115.039154 -0.000000 -0.000000
LeftFoot 14.779360 -9.219980 -17.949956
LeftToeBase 1.075079 -0.000000 -0.000000
Spine 4.063238 30.916239 -5.243956
RightShoulder -5.802552 -4.852562 -21.716669
RightArm 37.860951 -25.788565 57.174278
RightForeArm 13.218616 -0.000000 46.710790
RightHand 12.348033 -0.000000 36.207033
RightHandThumb1 -24.326973 -0.000000 -32.862282
LeftShoulder -29.863354 4.510200 26.060915
LeftArm 13.390658 -31.359992 -34.410155
LeftForeArm 22.940682 -0.000000 0.219703
LeftHand -0.483450 0.000000 -2.012682
LeftHandThumb1 -26.253704 0.000000 33.147579
Head -17.282526 60.354057 -30.638537
3911
root -3.254744 33.519425 -2.886202 -14.869857 -46.843176 23.377912
RightUpLeg -7.749756 4.781729 -9.750066
RightLeg 22.612741 -0.000000 -0.000000
RightFoot -20.596731 -12.711627 -9.454804
RightToeBase 3.677852 -0.000000 -0.000000
LeftUpLeg -108.195846 -29.645780 -1.969542
LeftLeg 115.040099 -0.000000 -0.000000
LeftFoot 14.862278 -9.267371 -17.830147
LeftToeBase 0.605861 -0.000000 -0.000000
Spine 4.126192 30.826872 -5.213773
RightShoulder -5.775432 -4.855893 -21.747933
RightArm 37.893852 -25.795622 57.146076
RightForeArm 13.282183 -0.000000 46.691422
RightHand 12.376912 -0.000000 36.211964
RightHandThumb1 -24.326973 -0.000000 -32.862282
LeftShoulder -29.838431 4.546673 26.018856
LeftArm 13.489562 -31.351633 -34.504822
LeftForeArm 22.946301 0.000000 0.218069
LeftHand -0.505554 -0.000000 -1.882577
LeftHandThumb1 -26.253704 0.000000 33.147579
Head -17.178053 60.276112 -30.589899
3912
root -3.240425 33.516255 -2.888401 -14.775729 -46.719450 23.291146
RightUpLeg -7.769701 4.755841 -9.724069
RightLeg 22.632514 -0.000000 -0.000000
RightFoot -20.566746 -12.856349 -9.614538
RightToeBase 3.745993 -0.000000 -0.000000
LeftUpLeg -108.225722 -29.655573 -1.923048
LeftLeg 115.056207 -0.000000 -0.000000
LeftFoot 14.927187 -9.260310 -17.940045
LeftToeBase 0.925637 -0.000000 -0.000000
Spine 4.116403 30.780344 -5.222293
RightShoulder -5.762013 -4.850399 -21.759106
RightArm 37.947148 -25.842889 57.092863
RightForeArm 13.349738 -0.000000 46.667336
RightHand 12.307714 -0.000000 36.132237
RightHandThumb1 -24.326973 -0.000000 -32.862282
LeftShoulder -29.804630 4.591326 25.986070
LeftArm 13.566639 -31.309158 -34.562036
LeftForeArm 22.881673 0.000000 0.224892
LeftHand -0.485698 -0.000000 -1.896427
LeftHandThumb1 -26.253704 0.000000 33.147579
Head -17.019042 60.214313 -30.473095
3913
root -3.225095 33.513673 -2.891061 -14.677902 -46.608474 23.222051
RightUpLeg -7.807790 4.745173 -9.706152
RightLeg 22.640864 -0.000000 -0.000000
RightFoot -20.531455 -13.013064 -9.775169
RightToeBase 3.792314 -0.000000 -0.000000
LeftUpLeg -108.261661 -29.640960 -1.888802
LeftLeg 115.067225 -0.000000 -0.000000
LeftFoot 14.971883 -9.288271 -17.931828
LeftToeBase 0.904448 -0.000000 -0.000000
Spine 4.083886 30.751229 -5.254868
RightShoulder -5.754259 -4.833401 -21.754435
RightArm 37.984751 -25.883574 57.054347
RightForeArm 13.314178 0.000000 46.657129
RightHand 12.318450 -0.000000 35.878984
RightHandThumb1 -24.326973 -0.000000 -32.862282
LeftShoulder -29.787106 4.621937 25.964052
LeftArm 13.650732 -31.243424 -34.614748
LeftForeArm 22.824085 0.000000 0.237187
LeftHand -0.462530 -0.000000 -2.001721
LeftHandThumb1 -26.253704 0.000000 33.147579
Head -16.864325 60.189953 -30.347259
